<svg width="33" height="33" viewBox="0 0 33 33" fill="none" xmlns="http://www.w3.org/2000/svg">
<path d="M33 22.1719C33 25.3043 31.2608 27.8438 27.8438 27.8438H5.15625C1.7392 27.8438 0 25.3043 0 22.1719V10.8281C0 7.6957 1.7392 5.15625 5.15625 5.15625H27.8438C31.2608 5.15625 33 7.6957 33 10.8281V22.1719Z" fill="#128807"/>
<path d="M29.4628 16.9074L16.5773 25.9618L3.69135 16.9074L16.5773 7.85303L29.4628 16.9074Z" fill="#F9CB38"/>
<path fill-rule="evenodd" clip-rule="evenodd" d="M21.6614 18.4842C21.0746 20.4781 19.2385 21.9961 17.1595 22.2024C14.3818 22.4803 11.9517 20.7148 11.3608 17.9856C11.1859 17.1835 11.2082 16.3511 11.4257 15.5596C11.5067 15.4719 11.6186 15.4508 11.7299 15.4353C12.5424 15.3225 13.3636 15.2868 14.1828 15.3286C15.0568 15.3781 15.9235 15.4992 16.7661 15.7374C17.6308 15.9824 18.4681 16.3021 19.2586 16.7269C19.8534 17.043 20.4216 17.4068 20.9576 17.8149C21.1391 17.9557 21.3242 18.0939 21.4985 18.2439C21.5763 18.3109 21.6377 18.3831 21.6614 18.4842Z" fill="#002776"/>
<path fill-rule="evenodd" clip-rule="evenodd" d="M11.717 14.7526C12.3827 13.265 13.5052 12.2745 15.0567 11.8094C18.1814 10.8725 21.3871 12.9376 21.8517 16.1582C21.9238 16.6558 21.9269 17.1549 21.8506 17.6535C21.7717 17.6829 21.7129 17.6411 21.6588 17.5963C21.0925 17.1335 20.4883 16.7192 19.8526 16.3577C19.3631 16.0799 18.8544 15.8373 18.3304 15.6317C18.2376 15.5951 18.1211 15.576 18.0891 15.4518C18.1227 15.392 18.1649 15.3399 18.2155 15.2914C18.2335 15.2728 18.2598 15.2548 18.2356 15.2239C18.2273 15.2141 18.2103 15.2141 18.1959 15.2156C18.1572 15.2197 18.1624 15.2465 18.1639 15.2749C18.167 15.3672 18.1134 15.4265 18.0427 15.4739C17.9174 15.5023 17.7973 15.4647 17.6957 15.4105C17.4049 15.2579 17.0831 15.2058 16.7753 15.1207C16.2953 14.9903 15.8023 14.9165 15.3104 14.8397C14.9178 14.777 14.5227 14.732 14.126 14.7046C13.7651 14.6794 13.3975 14.683 13.0339 14.7077C12.6374 14.7356 12.2399 14.7634 11.8454 14.8108C11.8207 14.8145 11.7954 14.8109 11.7727 14.8006C11.7499 14.7902 11.7306 14.7736 11.717 14.7526Z" fill="#002776"/>
<path fill-rule="evenodd" clip-rule="evenodd" d="M18.0933 15.4198C18.0912 15.4827 18.1474 15.4745 18.1814 15.4879C19.513 16.0059 20.7512 16.7373 21.8475 17.6535C21.8159 17.9364 21.7533 18.215 21.6609 18.4842C21.0158 17.949 20.3553 17.439 19.6247 17.0224C17.3152 15.707 14.8422 15.1857 12.1986 15.4652C11.9408 15.4915 11.683 15.5266 11.4252 15.558C11.4917 15.2791 11.5763 15.0053 11.715 14.7516C13.645 14.4912 15.5414 14.6392 17.4023 15.2151C17.6333 15.2868 17.8535 15.4023 18.1 15.424L18.0933 15.4183" fill="#FEFEFE"/>
<path fill-rule="evenodd" clip-rule="evenodd" d="M20.4961 18.743C20.3409 18.7265 20.5095 18.9167 20.3527 18.9126C20.2161 18.9105 20.2089 18.8012 20.1418 18.7404C20.1934 18.6868 20.2847 18.6759 20.3135 18.5924C20.3331 18.6806 20.4162 18.6991 20.4961 18.743Z" fill="#D9DFEA"/>
<path fill-rule="evenodd" clip-rule="evenodd" d="M14.6406 19.6969C14.4947 19.7139 14.6169 19.8727 14.4947 19.8753C14.3715 19.8779 14.308 19.7866 14.2833 19.6922C14.2745 19.6654 14.3931 19.6056 14.4514 19.5613C14.4586 19.6546 14.5555 19.6505 14.6406 19.6969Z" fill="#E9ECF3"/>
<path fill-rule="evenodd" clip-rule="evenodd" d="M16.5722 19.4097C16.3695 19.5406 16.533 19.2447 16.4139 19.2735C16.4526 19.2117 16.5619 19.2261 16.5691 19.1312C16.6206 19.1849 16.6645 19.2467 16.7465 19.2581C16.6294 19.2421 16.7568 19.502 16.5722 19.4097Z" fill="#EDEFF5"/>
<path fill-rule="evenodd" clip-rule="evenodd" d="M12.3853 15.9354C12.3368 16.0277 12.3002 16.1308 12.1533 16.0689C12.078 16.0375 12.1584 15.9343 12.0682 15.9245L12.2353 15.7776C12.2466 15.8018 12.26 15.825 12.2714 15.8493C12.2848 15.9106 12.407 15.8292 12.3853 15.9354Z" fill="#F0F2F6"/>
<path fill-rule="evenodd" clip-rule="evenodd" d="M12.853 18.1758C12.7761 18.2001 12.8313 18.4022 12.6663 18.314C12.6498 18.3058 12.5776 18.3455 12.591 18.3223C12.6344 18.2377 12.5374 18.1964 12.5524 18.1289C12.6426 18.1681 12.6374 18.0031 12.7297 18.0474C12.7364 18.0526 12.7364 18.0732 12.7411 18.0866C12.7509 18.1506 12.8757 18.0706 12.853 18.1758Z" fill="#ECEFF4"/>
<path fill-rule="evenodd" clip-rule="evenodd" d="M12.0419 18.7729C11.8836 18.828 12.0017 18.6367 11.9109 18.6383C11.9532 18.6027 12.0006 18.5362 12.0429 18.5388C12.0935 18.5413 12.1399 18.6037 12.1863 18.6393C12.1172 18.6625 12.1899 18.8497 12.0419 18.7729Z" fill="#D9DFEA"/>
<path fill-rule="evenodd" clip-rule="evenodd" d="M18.1603 20.5977C17.9927 20.674 18.1556 20.4487 18.0437 20.4781C18.0324 20.3919 18.1721 20.444 18.1546 20.3533L18.3057 20.4744C18.2443 20.5023 18.3057 20.6776 18.1603 20.5977Z" fill="#D8DEEA"/>
<path fill-rule="evenodd" clip-rule="evenodd" d="M19.2328 20.4735C19.0941 20.5312 19.1792 20.3446 19.1044 20.326C19.155 20.2935 19.2081 20.259 19.2576 20.2255C19.2617 20.3018 19.3664 20.274 19.3777 20.3415C19.2999 20.3461 19.3808 20.5142 19.2328 20.4735ZM20.197 19.7795C20.0393 19.8594 20.1558 19.6495 20.0656 19.6583C20.0836 19.5913 20.1872 19.6165 20.1934 19.5392L20.3414 19.65C20.2512 19.6475 20.362 19.8687 20.197 19.7795Z" fill="#DCE1EC"/>
<path fill-rule="evenodd" clip-rule="evenodd" d="M13.81 18.8167C13.645 18.91 13.7528 18.7012 13.6765 18.6971C13.6842 18.6202 13.8007 18.6532 13.8059 18.5718C13.8213 18.6471 13.9214 18.6254 13.943 18.6929C13.8445 18.6785 13.9848 18.9152 13.81 18.8167Z" fill="#D4DAE7"/>
<path fill-rule="evenodd" clip-rule="evenodd" d="M14.4787 17.2503C14.3854 17.2441 14.505 17.0972 14.3906 17.1064C14.4102 17.0239 14.4983 17.041 14.5468 16.9982C14.5715 17.0502 14.6417 17.0621 14.6453 17.1369C14.6535 17.2735 14.5324 17.2029 14.4787 17.2503Z" fill="#F2F4F7"/>
<path fill-rule="evenodd" clip-rule="evenodd" d="M17.1961 18.3393C17.0533 18.4213 17.1286 18.2383 17.0626 18.2181C17.1074 18.181 17.1507 18.1434 17.1961 18.1052C17.1992 18.1815 17.3451 18.1645 17.3039 18.2233C17.2791 18.2584 17.359 18.4187 17.1961 18.3393Z" fill="#E6E9F1"/>
<path fill-rule="evenodd" clip-rule="evenodd" d="M16.5567 17.8798C16.3938 17.8963 16.5619 17.7483 16.4562 17.7519C16.4974 17.7133 16.5371 17.6473 16.5835 17.6431C16.6238 17.639 16.6702 17.7045 16.714 17.7406C16.6568 17.7958 16.6655 17.9381 16.5567 17.8798Z" fill="#EAEDF3"/>
<path fill-rule="evenodd" clip-rule="evenodd" d="M20.5126 19.0834C20.5461 19.1721 20.6121 19.1839 20.6637 19.2154C20.6111 19.2747 20.5905 19.3654 20.4811 19.3654C20.3692 19.3665 20.445 19.2814 20.4198 19.2417C20.3574 19.1427 20.5879 19.2262 20.5126 19.0834Z" fill="#E4E8F0"/>
<path fill-rule="evenodd" clip-rule="evenodd" d="M19.3452 20.8797C19.306 20.938 19.3328 20.9937 19.2286 20.9957C19.1095 20.9978 19.1477 20.9106 19.1425 20.8838C19.1327 20.8395 19.2008 20.7972 19.24 20.806C19.274 20.8122 19.34 20.8312 19.3452 20.8797Z" fill="#CED5E4"/>
<path fill-rule="evenodd" clip-rule="evenodd" d="M13.7744 19.2276C13.6893 19.2374 13.76 19.3488 13.6522 19.3452C13.5537 19.3421 13.5682 19.2756 13.5573 19.2354C13.5403 19.1792 13.6233 19.1807 13.6419 19.1384C13.6811 19.1658 13.7208 19.1931 13.7744 19.2276Z" fill="#DAE0EB"/>
<path fill-rule="evenodd" clip-rule="evenodd" d="M19.1142 19.8165C19.1508 19.7892 19.1874 19.7639 19.2261 19.7382C19.2292 19.7954 19.3524 19.7624 19.3112 19.8356C19.2941 19.865 19.3359 19.9454 19.2292 19.9382C19.1333 19.9315 19.156 19.8645 19.1142 19.8165Z" fill="#D8DEE9"/>
<path fill-rule="evenodd" clip-rule="evenodd" d="M18.7223 19.9933C18.7038 20.0949 18.646 20.1114 18.5826 20.1233C18.4748 20.1413 18.5558 20.0604 18.5382 20.0294C18.4929 19.9521 18.6073 19.967 18.6207 19.9165C18.6506 19.9557 18.7192 19.9547 18.7223 19.9933Z" fill="#CBD2E3"/>
<path fill-rule="evenodd" clip-rule="evenodd" d="M18.119 16.6495C18.083 16.6665 18.1309 16.7526 18.0536 16.7279C17.9948 16.7078 17.9226 16.6799 17.9278 16.6078C17.9298 16.5799 17.9999 16.5567 18.0391 16.5325C18.0458 16.5845 18.1572 16.5675 18.119 16.6495Z" fill="#D1D8E6"/>
<path fill-rule="evenodd" clip-rule="evenodd" d="M21.037 18.9111C20.94 18.9493 20.9839 18.8693 20.9668 18.8461C20.9019 18.758 21.0303 18.7709 21.037 18.7183C21.0767 18.7446 21.154 18.7745 21.1509 18.7972C21.1487 18.8266 21.1359 18.8543 21.115 18.8752C21.0941 18.8961 21.0664 18.9089 21.037 18.9111Z" fill="#DADFEA"/>
<path fill-rule="evenodd" clip-rule="evenodd" d="M16.0514 18.1243C16.0514 18.1841 16.1721 18.1604 16.1313 18.2351C16.1148 18.2655 16.1499 18.347 16.0664 18.33C16.003 18.3171 15.939 18.28 15.937 18.2171C15.937 18.1877 16.0102 18.1562 16.0514 18.1243Z" fill="#CAD2E2"/>
<path fill-rule="evenodd" clip-rule="evenodd" d="M17.7014 19.9898C17.654 19.9677 17.6519 19.9053 17.655 19.8754C17.6601 19.8357 17.7133 19.782 17.7586 19.8037C17.7865 19.8171 17.8654 19.8094 17.8463 19.8815C17.8288 19.9506 17.7597 19.9604 17.7014 19.9898Z" fill="#D0D7E5"/>
<path fill-rule="evenodd" clip-rule="evenodd" d="M19.6968 19.899C19.6989 19.8985 19.735 19.8485 19.7757 19.8474C19.8051 19.8464 19.835 19.9072 19.8665 19.9413C19.8242 19.9531 19.8603 20.031 19.7768 20.03C19.7015 20.0284 19.7015 19.9944 19.6968 19.899Z" fill="#EFF2F6"/>
<path fill-rule="evenodd" clip-rule="evenodd" d="M16.3793 18.5934C16.3654 18.6491 16.3654 18.6837 16.3159 18.6826C16.2654 18.6816 16.2406 18.663 16.2417 18.6115C16.2417 18.5707 16.2685 18.5424 16.2989 18.545C16.334 18.5475 16.384 18.5573 16.3793 18.5934Z" fill="#CCD4E3"/>
<path fill-rule="evenodd" clip-rule="evenodd" d="M13.2175 17.7911C13.2423 17.818 13.2706 17.8391 13.2815 17.8664C13.2908 17.8891 13.2763 17.9237 13.2443 17.9273C13.2088 17.9304 13.1706 17.9293 13.1593 17.885C13.149 17.8417 13.1866 17.8262 13.2175 17.7911Z" fill="#E0E5EE"/>
<path fill-rule="evenodd" clip-rule="evenodd" d="M12.853 18.1758C12.8391 18.1165 12.7473 18.1541 12.7411 18.0861C12.7607 18.1376 12.9138 18.0226 12.853 18.1758Z" fill="#7085B1"/>
<path fill-rule="evenodd" clip-rule="evenodd" d="M12.3853 15.9355C12.374 15.8721 12.2765 15.9221 12.2714 15.8494C12.2987 15.8927 12.4369 15.7901 12.3853 15.9355Z" fill="#5C75A7"/>
<path fill-rule="evenodd" clip-rule="evenodd" d="M18.1036 15.4254C18.1134 15.3863 18.1448 15.3223 18.1324 15.3105C17.9643 15.1609 18.1886 15.1357 18.2222 15.1052C18.2835 15.0459 18.2737 15.296 18.4356 15.1377C18.3485 15.3311 18.232 15.3868 18.0979 15.4198L18.1036 15.4254Z" fill="#E7EAF2"/>
<path fill-rule="evenodd" clip-rule="evenodd" d="M13.1335 15.2652C12.9695 15.2492 13.1154 15.0357 13.0799 14.912C13.0355 14.7521 13.152 14.7542 13.2655 14.7537C13.4413 14.7526 13.5408 14.8269 13.5408 15.0125C13.5403 15.195 13.4557 15.2672 13.1335 15.2652Z" fill="#15A24A"/>
<path fill-rule="evenodd" clip-rule="evenodd" d="M19.3983 16.2954C19.3622 16.4057 19.2287 16.4748 19.206 16.6109C19.2039 16.629 19.1523 16.6254 19.1425 16.5728C19.1013 16.3263 19.0992 16.3268 18.9172 16.4588C18.9028 16.4696 18.8775 16.4794 18.8636 16.4748C18.8368 16.4629 18.826 16.4361 18.8419 16.4057C18.9023 16.2881 18.959 16.1675 19.0265 16.0535C19.0719 15.9783 19.1271 16.0412 19.1714 16.0628C19.2689 16.1108 19.389 16.1381 19.3983 16.2954Z" fill="#13A248"/>
<path fill-rule="evenodd" clip-rule="evenodd" d="M19.8598 16.6965C19.7649 16.7346 19.719 16.663 19.6582 16.6372C19.617 16.6196 19.5783 16.6031 19.5504 16.649C19.52 16.6975 19.5504 16.7254 19.5922 16.747C19.6242 16.763 19.6582 16.7754 19.6819 16.8006C19.7237 16.8445 19.8547 16.8326 19.8015 16.9259C19.7598 17.0002 19.6897 16.9136 19.6432 16.8862C19.5633 16.8372 19.405 16.8104 19.422 16.7254C19.4483 16.5887 19.5262 16.4402 19.6298 16.3464C19.7129 16.2711 19.8046 16.4134 19.898 16.449C19.9382 16.4639 20.0068 16.4773 19.9949 16.5408C19.9836 16.6062 19.9351 16.5681 19.898 16.5593C19.8108 16.5392 19.7263 16.3917 19.6577 16.4938C19.6164 16.5547 19.7861 16.5799 19.8397 16.647C19.848 16.6568 19.85 16.6702 19.8598 16.6965ZM20.971 17.4256C20.9865 17.5462 20.9375 17.6282 20.8111 17.6076C20.6802 17.5859 20.5807 17.506 20.558 17.3627C20.5559 17.3482 20.5734 17.3188 20.5879 17.3147C20.5962 17.312 20.605 17.3111 20.6137 17.3122C20.6224 17.3132 20.6307 17.3161 20.6381 17.3208C20.6455 17.3254 20.6519 17.3316 20.6566 17.3389C20.6614 17.3462 20.6645 17.3545 20.6657 17.3632C20.6822 17.4617 20.7338 17.5055 20.8374 17.5076C20.8575 17.3462 20.5662 17.2724 20.7338 17.1049C20.8178 17.0208 20.9205 17.0904 20.9937 17.158C21.0612 17.2193 21.1437 17.2869 21.0205 17.3745C21.003 17.3652 20.9792 17.3503 20.9663 17.3606C20.94 17.3781 20.9658 17.4034 20.971 17.4256Z" fill="#11A147"/>
<path fill-rule="evenodd" clip-rule="evenodd" d="M17.4095 15.89C17.3482 15.8555 17.3513 15.8225 17.3611 15.7864C17.3807 15.7095 17.341 15.6693 17.2708 15.6477C17.2007 15.625 17.1466 15.6281 17.1275 15.7157C17.1208 15.7549 17.1002 15.7822 17.0574 15.7678C17.0079 15.7498 17.0326 15.7095 17.0419 15.6802C17.0615 15.6126 17.079 15.5445 17.11 15.4801C17.1378 15.4156 17.1182 15.2976 17.2198 15.3053C17.3276 15.313 17.4441 15.3388 17.5261 15.428C17.5627 15.4672 17.5776 15.5347 17.5477 15.5641C17.4606 15.6539 17.4678 15.7807 17.4095 15.89Z" fill="#0FA046"/>
<path fill-rule="evenodd" clip-rule="evenodd" d="M14.2276 15.2337C14.0611 15.2966 13.9296 15.26 13.8012 15.2626C13.7429 15.2641 13.7378 15.2203 13.7378 15.176C13.7419 15.127 13.7419 15.0775 13.7419 15.0285C13.7481 14.7568 13.8445 14.6872 14.1116 14.763C14.1415 14.7712 14.1699 14.7764 14.1719 14.8099C14.1719 14.8563 14.1384 14.8645 14.0972 14.8635C14.0915 14.8625 14.0848 14.8609 14.0776 14.862C13.9977 14.8815 13.8543 14.7913 13.8517 14.9109C13.8487 15.0027 14.0049 14.9377 14.0848 14.9687C14.0962 14.9733 14.1085 14.9836 14.1261 14.9965C14.0755 15.0878 13.9915 15.0367 13.9265 15.0476C13.8878 15.0538 13.8373 15.0367 13.8316 15.0997C13.8244 15.1739 13.876 15.1703 13.9265 15.1755C14.0126 15.1858 14.1059 15.1533 14.2276 15.2337Z" fill="#0B9F43"/>
<path fill-rule="evenodd" clip-rule="evenodd" d="M12.8586 15.2729C12.7689 15.2533 12.7813 15.2018 12.7658 15.1657C12.739 15.0991 12.6859 15.0991 12.6276 15.1038C12.5611 15.11 12.525 15.1358 12.5307 15.2095C12.5348 15.2456 12.5493 15.3038 12.4822 15.2956C12.4245 15.2884 12.441 15.2322 12.4379 15.194C12.4327 15.1316 12.4266 15.0677 12.4327 15.0058C12.441 14.9367 12.375 14.831 12.4745 14.8063C12.5771 14.7795 12.6957 14.7604 12.8024 14.8114C12.8489 14.8336 12.8855 14.8877 12.8684 14.9316C12.8293 15.0419 12.8602 15.1538 12.8586 15.2729Z" fill="#079D3F"/>
<path fill-rule="evenodd" clip-rule="evenodd" d="M11.7702 15.0976C11.7867 14.9578 11.848 14.8444 12.0012 14.8495C12.1481 14.8542 12.2265 14.9563 12.2265 15.1032C12.2265 15.2491 12.1584 15.3497 12.0032 15.3487C11.8455 15.3476 11.7918 15.2332 11.7702 15.0976Z" fill="#15A24A"/>
<path fill-rule="evenodd" clip-rule="evenodd" d="M21.5861 17.717C21.5717 17.8557 21.5031 17.9603 21.3448 17.9743C21.1989 17.9861 21.1216 17.9026 21.1102 17.7654C21.0973 17.6267 21.2335 17.4942 21.3722 17.4952C21.4938 17.4963 21.583 17.5844 21.5861 17.717Z" fill="#11A147"/>
<path fill-rule="evenodd" clip-rule="evenodd" d="M18.6914 16.1031C18.8079 16.1969 18.6666 16.2588 18.6615 16.3377C18.5645 16.2928 18.4434 16.3109 18.365 16.2258C18.2815 16.135 18.2969 16.0324 18.3516 15.9324C18.4119 15.8267 18.5047 15.7813 18.6187 15.8215C18.7228 15.8587 18.8007 15.9288 18.7502 16.0608C18.6702 16.0752 18.6047 15.97 18.4923 16.0407C18.5671 16.0752 18.6568 16.0273 18.6914 16.1031Z" fill="#0C9F43"/>
<path fill-rule="evenodd" clip-rule="evenodd" d="M15.8864 15.0408C15.8183 15.1207 15.7683 15.0898 15.7214 15.0908C15.676 15.0908 15.6275 15.0532 15.5713 15.1001C15.6219 15.1826 15.7441 15.1295 15.7915 15.2115C15.7848 15.2233 15.7817 15.2393 15.7729 15.2476C15.7049 15.3012 15.5961 15.1713 15.5538 15.2785C15.5151 15.3708 15.6167 15.3388 15.6605 15.3543C15.71 15.3739 15.7714 15.3667 15.8312 15.4337C15.6925 15.4946 15.527 15.4662 15.4698 15.3992C15.3795 15.2935 15.4429 15.1058 15.5115 15.0119C15.5925 14.9011 15.7405 15.0094 15.8864 15.0408Z" fill="#19A44D"/>
<path fill-rule="evenodd" clip-rule="evenodd" d="M16.7655 15.4894C16.6485 15.4771 16.5154 15.3946 16.4819 15.5874C16.4809 15.5936 16.4401 15.6024 16.4278 15.5941C16.4139 15.5864 16.4061 15.5575 16.4087 15.541C16.4391 15.4188 16.4546 15.2878 16.5087 15.178C16.5716 15.0542 16.6784 15.1589 16.7665 15.1708C16.8717 15.1847 16.93 15.2486 16.9186 15.3595C16.9083 15.4549 16.8361 15.4807 16.7655 15.4894Z" fill="#0D9F44"/>
<path fill-rule="evenodd" clip-rule="evenodd" d="M18.1603 15.7849C18.1489 15.9401 18.0726 16.0473 17.9174 16.052C17.7787 16.0571 17.7009 15.9597 17.7039 15.8215C17.7081 15.672 17.7808 15.5637 17.9422 15.559C18.0902 15.5539 18.1474 15.6534 18.1603 15.7849Z" fill="#0FA046"/>
<path fill-rule="evenodd" clip-rule="evenodd" d="M14.6844 15.2249C14.6674 15.2615 14.6535 15.3136 14.6045 15.3017C14.5194 15.2816 14.5576 15.1996 14.537 15.146C14.4741 15.0846 14.4906 15.1692 14.471 15.1847C14.4638 15.2228 14.4813 15.2811 14.4297 15.2888C14.3663 15.2965 14.3813 15.2357 14.3828 15.1996C14.388 15.1243 14.389 15.0454 14.4096 14.9732C14.4277 14.9114 14.3622 14.7974 14.4854 14.7964C14.5942 14.7959 14.5705 14.9067 14.5844 14.9732C14.5989 15.0496 14.6066 15.082 14.669 15.0062C14.7334 14.9892 14.7468 15.0362 14.7618 15.0815C14.77 15.1475 14.7407 15.1934 14.6844 15.2249Z" fill="#0EA044"/>
<path fill-rule="evenodd" clip-rule="evenodd" d="M20.1764 17.1187C20.2145 17.1187 20.2532 17.1693 20.2903 17.126C20.3187 17.0935 20.2934 17.0615 20.2682 17.0352C20.2496 17.0151 20.23 16.996 20.2125 16.9744C20.1599 16.9109 20.0861 16.8501 20.1588 16.7583C20.2248 16.6743 20.3017 16.6949 20.378 16.748C20.3919 16.7748 20.3873 16.8006 20.3728 16.8248C20.3166 16.913 20.4213 16.9666 20.4192 17.0419C20.4352 17.1126 20.4455 17.1837 20.3677 17.2244C20.2707 17.276 20.196 17.2286 20.1248 17.1667C20.1171 17.126 20.132 17.1059 20.1764 17.1187Z" fill="#10A146"/>
<path fill-rule="evenodd" clip-rule="evenodd" d="M18.6914 16.103C18.6517 16.1309 18.5718 16.0406 18.5744 16.1087C18.5795 16.2294 18.5192 16.2185 18.463 16.183C18.3872 16.136 18.3831 16.0556 18.431 15.9813C18.4774 15.9086 18.5429 15.8664 18.6223 15.9257C18.6708 15.9612 18.7074 16.0149 18.7492 16.0608L18.6914 16.103Z" fill="#ECF7F0"/>
<path fill-rule="evenodd" clip-rule="evenodd" d="M14.7185 15.1026C14.7034 15.0708 14.6869 15.0397 14.669 15.0093C14.6871 14.9634 14.7036 14.917 14.7252 14.8727C14.7448 14.8309 14.7788 14.8077 14.8268 14.8232C14.8804 14.8412 14.8763 14.8825 14.8732 14.9258C14.8619 15.0521 14.8515 15.1779 14.8417 15.3043C14.7665 15.3522 14.7474 15.3084 14.735 15.2434C14.7257 15.1965 14.75 15.146 14.7185 15.1026Z" fill="#17A34C"/>
<path fill-rule="evenodd" clip-rule="evenodd" d="M20.4208 17.0414C20.3744 16.994 20.3249 16.9491 20.2816 16.8986C20.231 16.8388 20.2506 16.8022 20.3259 16.7924C20.4347 16.8166 20.5012 16.8692 20.4693 16.994C20.4543 17.0094 20.4378 17.0259 20.4208 17.0414Z" fill="#D7EFE0"/>
<path fill-rule="evenodd" clip-rule="evenodd" d="M20.4693 16.994C20.4193 16.9291 20.4058 16.8362 20.3259 16.7924L20.3796 16.7476C20.4662 16.8089 20.6245 16.844 20.4693 16.994Z" fill="#2BAB5B"/>
<path fill-rule="evenodd" clip-rule="evenodd" d="M20.9709 17.4256C20.9642 17.4215 20.9555 17.4194 20.9524 17.4137C20.9111 17.3374 20.7745 17.2688 20.8209 17.2013C20.8792 17.1198 20.94 17.2162 20.972 17.2858C20.9864 17.3152 21.0039 17.3441 21.0204 17.3745C21.0034 17.3915 20.9864 17.4086 20.9709 17.4256Z" fill="#E6F5EC"/>
<path fill-rule="evenodd" clip-rule="evenodd" d="M20.1764 17.1188C20.1599 17.1347 20.1439 17.1512 20.1248 17.1672C20.1032 17.1517 20.0733 17.1409 20.0593 17.1188C20.033 17.0687 19.9578 17.0022 20.0449 16.963C20.1181 16.928 20.1181 17.0213 20.1418 17.0667C20.1516 17.0857 20.164 17.1017 20.1764 17.1188Z" fill="#29AA59"/>
<path fill-rule="evenodd" clip-rule="evenodd" d="M14.7185 15.1027C14.7938 15.1321 14.7541 15.195 14.7551 15.2419C14.7592 15.3063 14.7819 15.328 14.8423 15.3053C14.7164 15.427 14.7324 15.2646 14.684 15.2285C14.6969 15.1857 14.7066 15.1439 14.7185 15.1027Z" fill="#DDF1E4"/>
<path fill-rule="evenodd" clip-rule="evenodd" d="M14.4684 15.1852V15.0192C14.5396 15.0419 14.5417 15.0919 14.5344 15.1465C14.5128 15.1594 14.4901 15.1718 14.4684 15.1852Z" fill="#6FC690"/>
<path fill-rule="evenodd" clip-rule="evenodd" d="M13.1835 15.015C13.1907 14.9397 13.1546 14.8417 13.283 14.85C13.3768 14.8556 13.4449 14.8933 13.45 15.0005C13.4552 15.116 13.3877 15.163 13.2809 15.1707C13.1453 15.1815 13.2005 15.0748 13.1835 15.015Z" fill="#F5FBF7"/>
<path fill-rule="evenodd" clip-rule="evenodd" d="M19.1296 16.1493C19.1833 16.1787 19.2653 16.1844 19.2828 16.2638C19.2916 16.3051 19.256 16.3324 19.2194 16.3205C19.1513 16.2999 19.0611 16.2989 19.0518 16.203C19.0492 16.1751 19.0791 16.1401 19.1296 16.1493Z" fill="#EFF8F3"/>
<path fill-rule="evenodd" clip-rule="evenodd" d="M17.4575 15.5152C17.4436 15.5688 17.4059 15.5874 17.3626 15.5714C17.3044 15.5503 17.2105 15.5735 17.2095 15.4714C17.2074 15.4183 17.2435 15.4023 17.292 15.4183C17.3559 15.4389 17.4333 15.4363 17.4575 15.5152Z" fill="#DEF2E5"/>
<path fill-rule="evenodd" clip-rule="evenodd" d="M12.6406 14.8805C12.6911 14.8867 12.771 14.8599 12.7658 14.946C12.7607 15.0213 12.6844 15.0094 12.6297 15.0104C12.5859 15.012 12.523 15.0347 12.5189 14.9558C12.5158 14.8619 12.589 14.8913 12.6406 14.8805Z" fill="#F3FAF5"/>
<path fill-rule="evenodd" clip-rule="evenodd" d="M11.9883 14.9521C12.0816 14.9583 12.128 15.014 12.1316 15.1017C12.1368 15.1801 12.0981 15.2471 12.0177 15.2543C11.9248 15.2631 11.8831 15.1924 11.8779 15.1063C11.8728 15.0269 11.9037 14.9692 11.9883 14.9521Z" fill="#F3FAF6"/>
<path fill-rule="evenodd" clip-rule="evenodd" d="M21.4835 17.735C21.4701 17.8206 21.4185 17.8809 21.319 17.8809C21.2391 17.8799 21.2092 17.8216 21.2174 17.751C21.2252 17.6551 21.2824 17.5932 21.3799 17.5948C21.4567 17.5968 21.4866 17.652 21.4835 17.735Z" fill="#F9FCFA"/>
<path fill-rule="evenodd" clip-rule="evenodd" d="M16.6443 15.2357C16.6964 15.2677 16.8011 15.2347 16.8161 15.3378C16.8207 15.377 16.7774 15.3971 16.7428 15.3894C16.6753 15.3744 16.5809 15.3987 16.5727 15.2899C16.5711 15.2564 16.5861 15.2203 16.6443 15.2357Z" fill="#E7F5EC"/>
<path fill-rule="evenodd" clip-rule="evenodd" d="M18.0572 15.7973C18.0474 15.8865 18.0035 15.9489 17.9133 15.9489C17.8246 15.9499 17.7932 15.888 17.7973 15.8066C17.8045 15.7168 17.8556 15.657 17.9427 15.6534C18.0293 15.6503 18.0572 15.7194 18.0572 15.7973Z" fill="#F5FBF7"/>
</svg>
