<svg width="33" height="33" viewBox="0 0 33 33" fill="none" xmlns="http://www.w3.org/2000/svg">
<g clip-path="url(#clip0_1_174)">
<path d="M32.4912 6.41671C31.856 5.32496 30.6873 4.58337 29.3333 4.58337H16.5V6.41671H32.4912ZM0 22.9167H33V24.75H0V22.9167ZM16.5 15.5834H33V17.4167H16.5V15.5834ZM16.5 11.9167H33V13.75H16.5V11.9167ZM0 19.25H33V21.0834H0V19.25ZM3.66667 28.4167H29.3333C30.6873 28.4167 31.856 27.6751 32.4912 26.5834H0.50875C1.144 27.6751 2.31275 28.4167 3.66667 28.4167ZM16.5 8.25004H33V10.0834H16.5V8.25004Z" fill="#B22334"/>
<path d="M0.0623333 25.3724C0.0779167 25.4576 0.0953333 25.5429 0.116417 25.6263C0.14025 25.7189 0.169583 25.8078 0.20075 25.8976C0.282333 26.135 0.381333 26.3642 0.506 26.5787L0.50875 26.5833H32.4912L32.4931 26.5796C32.6161 26.3635 32.718 26.136 32.7974 25.9004C32.8578 25.7283 32.9044 25.5518 32.9368 25.3724C32.9743 25.1707 33 24.9635 33 24.75H0C0 24.9635 0.0256667 25.1698 0.0623333 25.3724ZM0 21.0833H33V22.9166H0V21.0833ZM0 17.4166V19.25H33V17.4166H16.5H0ZM16.5 13.75H33V15.5833H16.5V13.75ZM16.5 10.0833H33V11.9166H16.5V10.0833ZM0.117333 7.37363C0.14025 7.28013 0.172333 7.19121 0.201667 7.10138C0.169834 7.19093 0.141699 7.28176 0.117333 7.37363ZM16.5 8.24996H33C33 8.03638 32.9743 7.82921 32.9368 7.62663C32.9046 7.44706 32.8577 7.27045 32.7965 7.09863C32.717 6.86195 32.6148 6.63355 32.4912 6.41663H16.5V8.24996Z" fill="#EEEEEE"/>
<path d="M16.5 4.58337H3.66667C2.69421 4.58337 1.76158 4.96968 1.07394 5.65732C0.386308 6.34495 0 7.27758 0 8.25004L0 17.4167H16.5V4.58337Z" fill="#3C3B6E"/>
<path d="M1.83423 7.08213L2.40073 7.49371L2.1844 8.15829L2.74998 7.74763L3.31648 8.15829L3.10015 7.49371L3.66665 7.08213H2.96631L2.74998 6.41663L2.53456 7.08213H1.83423ZM3.66756 8.91546L4.23406 9.32704L4.01773 9.99163L4.58331 9.58096L5.14981 9.99163L4.93348 9.32704L5.49998 8.91546H4.79965L4.58331 8.24996L4.3679 8.91546H3.66756ZM7.33423 8.91546L7.90073 9.32704L7.6844 9.99163L8.24998 9.58096L8.81648 9.99163L8.60015 9.32704L9.16665 8.91546H8.46631L8.24998 8.24996L8.03456 8.91546H7.33423ZM11.0009 8.91546L11.5674 9.32704L11.3511 9.99163L11.9166 9.58096L12.4831 9.99163L12.2668 9.32704L12.8333 8.91546H12.133L11.9166 8.24996L11.7012 8.91546H11.0009ZM3.66756 12.5821L4.23406 12.9937L4.01773 13.6583L4.58331 13.2476L5.14981 13.6583L4.93348 12.9937L5.49998 12.5821H4.79965L4.58331 11.9166L4.3679 12.5821H3.66756ZM7.33423 12.5821L7.90073 12.9937L7.6844 13.6583L8.24998 13.2476L8.81648 13.6583L8.60015 12.9937L9.16665 12.5821H8.46631L8.24998 11.9166L8.03456 12.5821H7.33423ZM11.0009 12.5821L11.5674 12.9937L11.3511 13.6583L11.9166 13.2476L12.4831 13.6583L12.2668 12.9937L12.8333 12.5821H12.133L11.9166 11.9166L11.7012 12.5821H11.0009ZM5.5009 7.08213L6.0674 7.49371L5.85106 8.15829L6.41665 7.74763L6.98315 8.15829L6.76681 7.49371L7.33331 7.08213H6.63298L6.41665 6.41663L6.20123 7.08213H5.5009ZM9.16756 7.08213L9.73406 7.49371L9.51773 8.15829L10.0833 7.74763L10.6498 8.15829L10.4335 7.49371L11 7.08213H10.2996L10.0833 6.41663L9.8679 7.08213H9.16756ZM12.8342 7.08213L13.4007 7.49371L13.1844 8.15829L13.75 7.74763L14.3165 8.15829L14.1001 7.49371L14.6666 7.08213H13.9663L13.75 6.41663L13.5346 7.08213H12.8342ZM1.83423 10.7488L2.40073 11.1604L2.1844 11.825L2.74998 11.4143L3.31648 11.825L3.10015 11.1604L3.66665 10.7488H2.96631L2.74998 10.0833L2.53456 10.7488H1.83423ZM5.85106 11.825L6.41665 11.4143L6.98315 11.825L6.76681 11.1604L7.33331 10.7488H6.63298L6.41665 10.0833L6.20123 10.7488H5.5009L6.0674 11.1604L5.85106 11.825ZM9.16756 10.7488L9.73406 11.1604L9.51773 11.825L10.0833 11.4143L10.6498 11.825L10.4335 11.1604L11 10.7488H10.2996L10.0833 10.0833L9.8679 10.7488H9.16756ZM12.8342 10.7488L13.4007 11.1604L13.1844 11.825L13.75 11.4143L14.3165 11.825L14.1001 11.1604L14.6666 10.7488H13.9663L13.75 10.0833L13.5346 10.7488H12.8342ZM1.83423 14.4155L2.40073 14.827L2.1844 15.4916L2.74998 15.081L3.31648 15.4916L3.10015 14.827L3.66665 14.4155H2.96631L2.74998 13.75L2.53456 14.4155H1.83423ZM5.85106 15.4916L6.41665 15.081L6.98315 15.4916L6.76681 14.827L7.33331 14.4155H6.63298L6.41665 13.75L6.20123 14.4155H5.5009L6.0674 14.827L5.85106 15.4916ZM9.16756 14.4155L9.73406 14.827L9.51773 15.4916L10.0833 15.081L10.6498 15.4916L10.4335 14.827L11 14.4155H10.2996L10.0833 13.75L9.8679 14.4155H9.16756ZM12.8342 14.4155L13.4007 14.827L13.1844 15.4916L13.75 15.081L14.3165 15.4916L14.1001 14.827L14.6666 14.4155H13.9663L13.75 13.75L13.5346 14.4155H12.8342Z" fill="white"/>
</g>
<defs>
<clipPath id="clip0_1_174">
<rect width="33" height="33" fill="white"/>
</clipPath>
</defs>
</svg>
